Coordinates
version=1
nRows=16
nColumns=40
inDegrees=yes

Units are S.I. units (second, meters, Newtons, ...)
Angles are in degrees.

endheader
time	pelvis_tilt	pelvis_list	pelvis_rotation	pelvis_tx	pelvis_ty	pelvis_tz	hip_flexion_r	hip_adduction_r	hip_rotation_r	knee_angle_r	knee_angle_r_beta	ankle_angle_r	subtalar_angle_r	mtp_angle_r	hip_flexion_l	hip_adduction_l	hip_rotation_l	knee_angle_l	knee_angle_l_beta	ankle_angle_l	subtalar_angle_l	mtp_angle_l	lumbar_extension	lumbar_bending	lumbar_rotation	arm_flex_r	arm_add_r	arm_rot_r	elbow_flex_r	pro_sup_r	wrist_flex_r	wrist_dev_r	arm_flex_l	arm_add_l	arm_rot_l	elbow_flex_l	pro_sup_l	wrist_flex_l	wrist_dev_l
     49.44000000	     -1.66775020	     -3.51437310	     -2.02008437	      0.95742513	      0.91884186	      0.41831823	     20.79060033	     -6.58924583	     -0.66148588	     64.87098388	     64.87098388	     -2.01742872	    -17.49031436	      0.24009436	     19.16660475	     -1.20075410	     -0.77202602	     32.26760846	     32.26760846	     17.42232336	    -17.36179329	      7.05803565	     -9.13948881	      6.14113407	      3.45910542	     22.36165506	    -12.02341104	    -11.87453600	     34.36912069	     45.67473466	      0.00000000	      0.00000000	     13.03922476	    -13.82417078	     16.15643670	     37.38284384	     45.49634453	      0.00000000	      0.00000000
     49.46200000	     -1.37074076	     -3.40955659	     -2.47879859	      0.95711330	      0.91844038	      0.41647721	     22.71675808	     -6.32046620	     -0.25199010	     66.78343539	     66.78343539	     -0.07102986	    -18.33295831	      4.34513350	     18.65455259	     -0.98038517	     -1.06204426	     32.59089554	     32.59089554	     18.20574350	    -17.48721839	      7.77620777	     -9.35502335	      6.16041477	      3.15163816	     18.95704584	    -11.66035526	    -11.85616688	     31.99226596	     45.77827941	      0.00000000	      0.00000000	     15.06370735	    -14.34632913	     15.38729029	     38.53258085	     45.62161529	      0.00000000	      0.00000000
     49.48400000	     -1.11261277	     -3.26361631	     -2.96153020	      0.95683479	      0.91811935	      0.41456232	     24.55011329	     -6.23717646	     -0.09348080	     68.10548393	     68.10548393	      1.24627858	    -18.93930670	      5.83668280	     18.06475679	     -0.70698817	     -1.39400316	     32.69210943	     32.69210943	     18.67652638	    -17.69621837	      7.80537475	     -9.55117144	      6.12820868	      3.16722337	     15.08088946	    -11.54263046	    -11.77904194	     29.98921400	     45.83593454	      0.00000000	      0.00000000	     17.24241618	    -14.79292613	     14.68110378	     40.01442381	     45.73864335	      0.00000000	      0.00000000
     49.50600000	     -0.84217469	     -3.21028363	     -3.41067080	      0.95649697	      0.91811379	      0.41286866	     26.35718610	     -5.86046680	      0.12091241	     69.07458593	     69.07458593	      4.07965491	    -19.12459732	     12.23299474	     17.43133638	     -0.54958729	     -1.74029485	     32.74341391	     32.74341391	     19.23886421	    -17.75033103	      8.16190784	     -9.82302501	      6.23555428	      2.71233420	     11.62333066	    -11.25089795	    -11.64357080	     27.90420261	     45.92043695	      0.00000000	      0.00000000	     19.13601418	    -15.40182319	     13.12347062	     41.64561589	     45.95015524	      0.00000000	      0.00000000
     49.52800000	     -0.67408357	     -3.06841182	     -3.91574294	      0.95617041	      0.91836187	      0.41126004	     27.88670961	     -5.79158377	      0.05273498	     68.94403316	     68.94403316	      5.26848166	    -19.26610287	     12.78833137	     16.74744128	     -0.30990530	     -2.18092961	     32.47300521	     32.47300521	     19.54162650	    -17.80943382	      8.17371327	     -9.99143272	      6.23032353	      2.64623434	      7.96472238	    -11.20839144	    -11.57626815	     26.07070195	     45.97304655	      0.00000000	      0.00000000	     21.28287665	    -15.92622534	     12.31637805	     43.01794778	     46.07073509	      0.00000000	      0.00000000
     49.55000000	     -0.54575940	     -3.03192479	     -4.40569290	      0.95577712	      0.91903844	      0.40997239	     29.14356879	     -5.54468715	     -0.08249447	     67.92002576	     67.92002576	      6.47881123	    -19.31827325	     13.58565491	     16.02315966	     -0.20516105	     -2.60544173	     32.03950490	     32.03950490	     19.76446912	    -17.78959470	      8.17706546	    -10.16614770	      6.34177730	      2.54534162	      4.51431881	    -11.17769745	    -11.52193757	     24.45622550	     46.02112910	      0.00000000	      0.00000000	     23.31286622	    -16.43230476	     11.31260181	     44.45427357	     46.20758715	      0.00000000	      0.00000000
     49.57200000	     -0.51875267	     -3.06888144	     -4.91981106	      0.95531468	      0.92001341	      0.40917492	     30.16155344	     -5.14834819	     -0.25714759	     65.98966351	     65.98966351	      7.47891884	    -19.29296296	     14.04426008	     15.31655884	     -0.22523683	     -3.08803551	     31.42284321	     31.42284321	     19.87644768	    -17.69600159	      8.11156839	    -10.27753494	      6.50558940	      2.39539452	      1.25391305	    -11.18763698	    -11.49677668	     23.18184666	     46.06070011	      0.00000000	      0.00000000	     25.16998597	    -17.00039181	     10.07472705	     45.94737306	     46.36194774	      0.00000000	      0.00000000
     49.59400000	     -0.68919436	     -3.16976713	     -5.38121355	      0.95474878	      0.92111870	      0.40876676	     30.98533339	     -4.65536385	     -0.48691237	     63.13977350	     63.13977350	      8.17662577	    -19.18908648	     14.00219790	     14.76911803	     -0.34570892	     -3.51136086	     30.68193631	     30.68193631	     19.92866668	    -17.52861044	      8.15307867	    -10.11958965	      6.74420999	      1.75289770	     -1.53577271	    -11.15637344	    -11.53559153	     22.21774100	     46.08541747	      0.00000000	      0.00000000	     26.78190694	    -18.00064724	      9.31078470	     46.84564156	     46.45892481	      0.00000000	      0.00000000
     49.61600000	     -0.67723424	     -3.35195871	     -5.95246905	      0.95430228	      0.92290446	      0.40884931	     31.13557219	     -4.00156506	     -0.54791944	     59.33562423	     59.33562423	      8.42887325	    -18.91112521	     13.16135099	     13.84954205	     -0.58811193	     -4.11275023	     29.66641692	     29.66641692	     19.85813271	    -17.26026845	      7.95857872	    -10.31106226	      7.01247507	      2.11364889	     -4.60859973	    -11.32818846	    -11.57137541	     21.48786500	     46.10456633	      0.00000000	      0.00000000	     28.50866739	    -18.20172063	      7.90642685	     48.85886631	     46.62725547	      0.00000000	      0.00000000
     49.63800000	     -1.12572893	     -3.46511736	     -6.45117652	      0.95357913	      0.92396376	      0.40933567	     31.55070855	     -3.43761841	     -0.64328546	     55.08428366	     55.08428366	      8.69491158	    -18.20448883	     12.81709257	     13.54379897	     -0.80925681	     -4.57673192	     28.79605593	     28.79605593	     19.77083406	    -17.02461371	      7.95330363	     -9.90076324	      7.18619143	      1.60846433	     -7.04075001	    -11.35797820	    -11.65387614	     20.91633245	     46.11753307	      0.00000000	      0.00000000	     29.98762650	    -19.27049412	      7.06966422	     49.79768167	     46.72628779	      0.00000000	      0.00000000
     49.66000000	     -1.13325024	     -3.62002794	     -7.02665415	      0.95336935	      0.92583463	      0.40999270	     30.56332107	     -3.15847421	     -1.10423138	     49.20424635	     49.20424635	      5.17343740	    -17.81555437	      1.06392036	     12.43869451	     -1.05675617	     -5.32625754	     27.35912657	     27.35912657	     18.67750209	    -16.90299744	      5.44815872	    -10.18705313	      7.41035543	      1.49596305	    -10.39926763	    -11.67239501	    -11.10601823	     23.61088773	     46.01503096	      0.00000000	      0.00000000	     30.36376369	    -18.94010182	      1.43170651	     53.69148593	     47.21928514	      0.00000000	      0.00000000
     49.68200000	     -1.45937436	     -3.80801016	     -7.53478064	      0.95294024	      0.92715226	      0.41112986	     30.08567906	     -2.62009539	     -1.21838789	     43.96075091	     43.96075091	      5.22787670	    -15.71484793	      1.10120115	     11.88961957	     -1.36956451	     -5.84118725	     26.35996166	     26.35996166	     18.64413316	    -16.54689151	      5.53934449	     -9.93609593	      7.66046519	      1.34791062	    -12.36535902	    -11.78825011	    -11.12988294	     23.16364095	     46.02406427	      0.00000000	      0.00000000	     31.72046307	    -19.74088467	      0.96361804	     54.73049870	     47.28114401	      0.00000000	      0.00000000
     49.70400000	     -1.56478011	     -3.84316381	     -8.07985401	      0.95286629	      0.92841379	      0.41245545	     29.04008160	     -2.47667377	     -1.64993504	     38.35966228	     38.35966228	      4.21881786	    -12.80476197	     -2.28389105	     10.99270885	     -1.51153549	     -6.57719557	     25.15323526	     25.15323526	     18.10611748	    -16.19337834	      4.20906567	    -10.07514674	      7.68822464	      1.35518808	    -15.04972292	    -11.92703797	    -11.11797821	     25.53935657	     45.93965958	      0.00000000	      0.00000000	     32.41352560	    -20.23957496	     -1.05355329	     57.92539508	     47.46167737	      0.00000000	      0.00000000
     49.72600000	     -1.79316634	     -3.95623338	     -8.58379314	      0.95285193	      0.92933795	      0.41419264	     28.07584825	     -2.14007323	     -1.95376814	     33.15765735	     33.15765735	      4.10258009	     -9.39756419	     -1.82420875	     10.33652157	     -1.74291225	     -7.09457009	     24.20824387	     24.20824387	     18.10958108	    -15.83624873	      4.16689715	     -9.91468170	      7.80801656	      1.38286583	    -16.51114681	    -11.99298629	    -11.10813115	     25.26482962	     45.94285599	      0.00000000	      0.00000000	     33.71144378	    -20.91968298	     -1.50476385	     58.84137246	     47.51818275	      0.00000000	      0.00000000
     49.74800000	     -1.85425348	     -3.77980669	     -9.08751162	      0.95318343	      0.92992742	      0.41596201	     27.09681217	     -2.34885803	     -2.79215261	     28.66276825	     28.66276825	      4.24553066	     -4.60472767	     -1.15123215	      9.46978495	     -1.64594677	     -7.83301737	     23.17040114	     23.17040114	     17.95229717	    -15.34448397	      3.49289101	     -9.96379860	      7.58115475	      1.55967483	    -18.05838793	    -11.95725355	    -11.15791047	     25.93723875	     45.91435248	      0.00000000	      0.00000000	     34.86519975	    -21.39907375	     -2.46755594	     60.58020741	     47.61935187	      0.00000000	      0.00000000
     49.77000000	     -2.11245660	     -3.74274717	     -9.52488131	      0.95355664	      0.93006078	      0.41816477	     26.22765406	     -2.09478186	     -2.97226192	     24.48673878	     24.48673878	      3.94843706	     -1.53051815	     -0.09543561	      8.94043098	     -1.73271519	     -8.32580922	     22.40902556	     22.40902556	     17.96971234	    -15.07234701	      3.21636719	     -9.72519721	      7.54136798	      1.56183457	    -18.91375802	    -11.84990479	    -11.18460818	     26.13947238	     45.90282614	      0.00000000	      0.00000000	     35.91960503	    -21.97809344	     -2.97518162	     61.49516113	     47.67781747	      0.00000000	      0.00000000
